<svg viewBox="0 0 17457 4596" xmlns="http://www.w3.org/2000/svg">
    <path d="M17457 4465.28C16641.3 4465.28 15775.9 4466.05 14960.3 4467.57C14962.6 4067.83 14963.7 3616.74 14963.5 3216.99C14963.5 2826.48 14961.5 2435.86 14961.4 2045.34C14961.4 1760.25 14962.8 1140.47 14962.8 1140.47C14962.8 1140.47 14923 1139.92 14962.8 1140.47L15553.1 1140.47C15553.1 1140.47 15553.1 1734.63 15551.3 1981.89C16045.5 1980.37 16651.1 1981.89 17145.5 1979.5C17142.8 2146.66 17142.8 2430.7 17145.5 2597.86C16653.2 2596.45 16043.7 2597.86 15551.4 2595.79C15553.7 2968.21 15554.3 3471.01 15551.4 3843.32C16147.4 3842.01 16861 3841.7 17457 3842.5V4465.28Z"/>
    <path d="M17457 726.298C16640.1 726.298 15778.5 726.843 14961.6 727.933C14963.4 550.011 14963.4 281.202 14961.6 103.352C14961.6 103.352 14961.6 103.352 14961.6 103.352C15778.6 104.66 16640.1 105.205 17457 104.987V726.298Z"/>
    <path d="M0.460869 4431.92C0.460869 3353.7 0.46045 2184.99 0.46045 1106.92C158.54 1106.92 586.735 1106.02 586.735 1106.02C585.281 1821.78 584.993 2601.24 585.793 3317.29C585.793 3464.47 587.428 3662.45 584.812 3809.63C868.265 3807.78 1203.29 3805.92 1486.74 3809.63C2247.6 3818.35 2762.94 3314.68 2912.84 2678.65C3031.78 2174.32 2964.08 1695.17 2657.95 1267.92C2391.18 895.608 2018.22 704.276 1561.53 695.882C1080.31 687.051 481.787 693.701 0.460449 695.882V72.4994C449.19 74.0257 999.09 67.4844 1447.71 72.4994C1803.66 76.4242 2146.97 147.179 2468.25 305.041C2942.06 537.692 3268.79 906.729 3444.75 1402.01C3639.46 1950.28 3648.73 2507.59 3455 3056.62C3205.12 3764.06 2697.09 4191.97 1970.14 4365.42C1775.4 4410.39 1576.05 4432.35 1376.19 4430.83C943.816 4430.83 432.982 4431.2 0.460869 4431.92Z"/>
    <path d="M13848.4 3088.46V3015.74C13848.4 2065.88 13847.9 1052.82 13847 102.807H14472.5C14471.1 1063.65 14470.8 2077.14 14471.5 3037.98V4574.5C13287.5 3365.02 12058.8 2106.87 10873.6 898.115C10861.3 886.607 10851.7 872.579 10845.4 856.996C10839 841.413 10836.2 824.645 10836.9 807.846C10838.5 559.06 10837.7 310.165 10837.7 61.3788V0L13848.4 3088.46Z"/>
    <path d="M10837.7 1397.1L11461 2010L11462.2 4466.48C11462.2 4466.48 10841 4466.48 10841 4466.48C10841 4466.48 10841 4466.48 10841 4466.48C10841 4466.48 10837.6 1397.1 10837.6 1397.1H10837.7Z"/>
    <path d="M4701.8 2598.8C4454.87 2598.8 4155.93 2597.93 3909 2599.78C3911.73 2430.91 3910.64 2165.66 3909 1997C4408.31 1998.75 5003.02 1999.11 5502.34 1998.09C5499.94 2165.26 5502.34 2598.69 5502.34 2598.69C5251.59 2597.16 4951.78 2597.93 4701.58 2597.93L4701.8 2598.8Z"/>
    <path fill-rule="evenodd" clip-rule="evenodd" d="M8063.5 4575C9295.37 4575 10294 3576.37 10294 2344.5C10294 1112.63 9295.37 114 8063.5 114C6831.63 114 5833 1112.63 5833 2344.5C5833 2890.12 6028.91 3389.98 6354.22 3777.58C6496.48 3635.68 6642.56 3489.74 6784.46 3347.76C6567.43 3071.46 6438 2723.1 6438 2344.5C6438 1446.76 7165.76 719 8063.5 719C8404.05 719 8720.13 823.724 8981.32 1002.72C8843.84 1140.34 8701.95 1282.07 8563.1 1420.46C8417.15 1344.15 8251.11 1301 8075 1301C7492.34 1301 7020 1773.34 7020 2356C7020 2938.66 7492.34 3411 8075 3411C8657.66 3411 9130 2938.66 9130 2356C9130 2167.83 9080.73 1991.16 8994.4 1838.2C9011.35 1821.27 9028.21 1804.45 9044.89 1787.79C9086.04 1746.72 9126.18 1706.64 9164.38 1668.44L9163.62 1667.97C9203.58 1628.01 9245.43 1586.09 9288.28 1543.17C9326.62 1504.78 9365.74 1465.59 9405.02 1426.31C9584.17 1687.56 9689 2003.79 9689 2344.5C9689 3242.24 8961.24 3970 8063.5 3970C7695.56 3970 7356.17 3847.75 7083.74 3641.66C7050.65 3674.76 7017.74 3707.7 6985.39 3740.09C6942.13 3783.39 6899.88 3825.69 6859.55 3866.02L6860.13 3866.31C6821.59 3904.85 6781.11 3945.28 6739.62 3986.72C6711.26 4015.04 6682.43 4043.84 6653.42 4072.83C7037.7 4386.72 7528.61 4575 8063.5 4575ZM8075 2806C8323.53 2806 8525 2604.53 8525 2356C8525 2107.47 8323.53 1906 8075 1906C7826.47 1906 7625 2107.47 7625 2356C7625 2604.53 7826.47 2806 8075 2806Z"/>
</svg>